<svg width="292" height="24" viewBox="0 0 292 24" fill="none" xmlns="http://www.w3.org/2000/svg">
<path d="M11.9155 23H9.00351V2.36H0.427506V0.599998H20.4915V2.36H11.9155V23ZM29.4833 11.864V23H26.5713V0.599998H29.4833V10.392H42.8913V0.599998H45.8033V23H42.8913V11.864H29.4833ZM55.0775 0.599998H69.5415V2.36H57.9895V10.392H67.9095V11.864H57.9895V21.24H69.5415V23H55.0775V0.599998ZM91.627 13.656V23H88.715V0.599998H96.203C97.4403 0.599998 98.5177 0.781332 99.435 1.144C100.352 1.50667 101.11 1.99733 101.707 2.616C102.326 3.21333 102.784 3.928 103.083 4.76C103.382 5.57067 103.531 6.424 103.531 7.32C103.531 8.25867 103.36 9.144 103.019 9.976C102.678 10.7867 102.166 11.512 101.483 12.152C100.822 12.7707 99.9897 13.2613 98.987 13.624C97.9843 13.9867 96.8323 14.168 95.531 14.168C94.763 14.168 94.059 14.1253 93.419 14.04C92.779 13.9333 92.1817 13.8053 91.627 13.656ZM91.627 2.008V12.344C92.075 12.5147 92.5763 12.632 93.131 12.696C93.6857 12.7387 94.2937 12.76 94.955 12.76C95.915 12.76 96.7363 12.6 97.419 12.28C98.1017 11.96 98.667 11.544 99.115 11.032C99.563 10.52 99.883 9.95467 100.075 9.336C100.288 8.696 100.395 8.06667 100.395 7.448C100.395 6.808 100.278 6.168 100.043 5.528C99.8297 4.86667 99.499 4.28 99.051 3.768C98.603 3.23467 98.0377 2.808 97.355 2.488C96.6723 2.168 95.883 2.008 94.987 2.008H91.627ZM109.94 23V0.599998H112.852V21.24H124.404V23H109.94ZM143.238 16.408H132.198L129.382 23H127.91L137.382 0.599998H138.982L149.414 23H146.31L143.238 16.408ZM142.566 14.968L137.542 4.184H137.414L132.806 14.968H142.566ZM173.876 0.599998H175.348V23.384H175.188L157.428 5.88H157.3V23H155.828V0.216H155.988L173.748 17.72H173.876V0.599998ZM192.903 23H189.991V2.36H181.415V0.599998H201.479V2.36H192.903V23ZM220.346 23V0.599998H223.258V21.24H234.81V23H220.346ZM242.476 0.599998H245.388V23H242.476V0.599998ZM255.952 0.599998H270.416V2.36H258.864V10.392H268.784V11.864H258.864V23H255.952V0.599998ZM276.802 0.599998H291.266V2.36H279.714V10.392H289.634V11.864H279.714V21.24H291.266V23H276.802V0.599998Z" fill="black"/>
</svg>
